# xmcd
# 
# Track frame offsets:
#     150
#     15123
#     29571
#     46269
#     60492
#     74565
#     91263
#     108111
#     125784
#     141132
#     159330
#     179178
#     196476
#     213849
#     229572
#     241620
#     256668
#     273216
# 
# Disc length: 3832
# 
# Revision: 1
# Processed by: cddbd v1.5.2PL0 Copyright (c) Steve Scherf et al.
# Submitted via: fre:ac v1.0.31
# 
DISCID=ed0ef612
DTITLE=Shania Twain - The First Time...For The Last Time Disc 2
DYEAR=2009
DGENRE=Country
TTITLE0=All Fired Up, No Place to Go
TTITLE1=Wild And Wicked
TTITLE2=The Heart Is Blind
TTITLE3=For The Love Of Him
TTITLE4=Bite My Lip
TTITLE5=Two Hearts On Love
TTITLE6=Luv Eyes
TTITLE7=Send It With Love
TTITLE8=It's Alright
TTITLE9=Hate To Love
TTITLE10=Lost My Heart
TTITLE11=Don"t Give My That (Once Over)
TTITLE12=Rhythm Made Me Do It
TTITLE13=Half Breed
TTITLE14=Love
TTITLE15=I Ain't Gonna Eat Out My Heart Anymore
TTITLE16=It's Alright (Club Mix)
TTITLE17=For The Love Of Him (Dance Mix)
EXTD=
EXTT0=
EXTT1=
EXTT2=
EXTT3=
EXTT4=
EXTT5=
EXTT6=
EXTT7=
EXTT8=
EXTT9=
EXTT10=
EXTT11=
EXTT12=
EXTT13=
EXTT14=
EXTT15=
EXTT16=
EXTT17=
PLAYORDER=
